<svg width="40" height="42" viewBox="0 0 40 42" fill="none" xmlns="http://www.w3.org/2000/svg">
<path d="M20.15 41.6412C17.2333 41.6412 14.5542 41.1219 12.1126 40.0834C9.67097 39.0559 7.55528 37.6086 5.76551 35.7415C3.97573 33.8744 2.59474 31.6704 1.62251 29.1293C0.650291 26.5883 0.16418 23.8042 0.16418 20.777C0.16418 17.772 0.650291 15.0045 1.62251 12.4745C2.60578 9.9445 3.98678 7.75148 5.76551 5.89542C7.55528 4.02831 9.65992 2.58102 12.0794 1.55356C14.4989 0.5261 17.1394 0.0123689 20.0008 0.0123689C22.8291 0.0123689 25.4143 0.542671 27.7565 1.60328C30.1097 2.65284 32.1426 4.10012 33.855 5.94513C35.5785 7.7791 36.9042 9.89479 37.8323 12.2922C38.7713 14.6786 39.2409 17.2141 39.2409 19.8987C39.2409 21.4344 39.0807 22.9038 38.7603 24.3069C38.451 25.71 37.9704 26.9584 37.3185 28.0521C36.6778 29.1459 35.8547 30.0076 34.8493 30.6374C33.855 31.2671 32.6673 31.582 31.2863 31.582C30.4467 31.582 29.6954 31.4328 29.0326 31.1345C28.3697 30.8362 27.8449 30.3446 27.4582 29.6596C27.0715 28.9746 26.8561 28.0521 26.8119 26.8921H26.6462C26.2043 27.8422 25.6132 28.6929 24.873 29.4442C24.1438 30.1955 23.2876 30.7865 22.3043 31.2174C21.3211 31.6372 20.2273 31.8416 19.0231 31.8306C17.6752 31.8085 16.4379 31.5102 15.311 30.9357C14.1841 30.3612 13.2118 29.5712 12.3943 28.5659C11.5878 27.5495 10.9581 26.3728 10.5051 25.036C10.0632 23.6882 9.84221 22.2464 9.84221 20.7108C9.84221 19.1972 10.0742 17.7941 10.5382 16.5015C11.0133 15.1978 11.6651 14.0544 12.4937 13.0711C13.3334 12.0878 14.3111 11.3145 15.427 10.751C16.5428 10.1876 17.7415 9.88374 19.0231 9.83955C20.1721 9.8064 21.2437 9.98317 22.238 10.3698C23.2324 10.7455 24.1052 11.2813 24.8564 11.9773C25.6077 12.6734 26.1822 13.4799 26.5799 14.3968H26.7456V10.2373H28.6183V25.9641C28.6183 27.3561 28.8171 28.3504 29.2148 28.947C29.6236 29.5436 30.3252 29.8419 31.3195 29.8419C32.59 29.8419 33.6782 29.4387 34.5842 28.6322C35.4901 27.8257 36.1806 26.6767 36.6557 25.1852C37.1418 23.6937 37.3848 21.9205 37.3848 19.8656C37.3848 17.9211 37.1086 16.0485 36.5562 14.2477C36.0149 12.4469 35.2305 10.7897 34.203 9.2761C33.1866 7.76253 31.9603 6.44229 30.524 5.3154C29.0878 4.1885 27.4748 3.31571 25.685 2.69703C23.9063 2.06729 21.9895 1.75243 19.9345 1.75243C17.3714 1.75243 15.0016 2.22749 12.8252 3.17761C10.6598 4.12774 8.77056 5.45902 7.15755 7.17146C5.55559 8.8839 4.30717 10.9002 3.41229 13.2202C2.52845 15.5403 2.08653 18.0758 2.08653 20.8268C2.08653 23.5777 2.52845 26.1187 3.41229 28.4499C4.30717 30.7699 5.56112 32.7807 7.17412 34.4821C8.79818 36.1945 10.715 37.5203 12.9246 38.4593C15.1342 39.3984 17.5592 39.868 20.1997 39.868C21.415 39.868 22.6082 39.7464 23.7792 39.5034C24.9503 39.2603 26.0496 38.9289 27.0771 38.5091C28.1045 38.1003 29.016 37.6418 29.8114 37.1336L30.5572 38.7245C29.6291 39.3211 28.5906 39.8348 27.4416 40.2657C26.3037 40.7076 25.1105 41.0446 23.8621 41.2766C22.6247 41.5196 21.3873 41.6412 20.15 41.6412ZM19.2054 29.9911C20.7189 29.9911 22.0447 29.5989 23.1826 28.8145C24.3206 28.019 25.21 26.9197 25.8507 25.5166C26.4915 24.1135 26.8119 22.4895 26.8119 20.6445C26.8119 18.7995 26.486 17.203 25.8342 15.8552C25.1823 14.5073 24.2874 13.4688 23.1495 12.7396C22.0116 11.9994 20.7134 11.6293 19.2551 11.6293C17.8189 11.6293 16.5262 12.0381 15.3772 12.8556C14.2393 13.6732 13.3389 14.7669 12.676 16.1369C12.0242 17.4958 11.6983 18.9983 11.6983 20.6445C11.6983 22.3348 12.0131 23.8926 12.6429 25.3178C13.2726 26.7319 14.1509 27.8643 15.2778 28.715C16.4047 29.5657 17.7139 29.9911 19.2054 29.9911Z" fill="#BD937A"/>
</svg>
