<svg width="54" height="54" viewBox="0 0 54 54" fill="none" xmlns="http://www.w3.org/2000/svg">
<path d="M32.5197 9.29883H21.5243L16.0266 15.8961H9.4294C8.26294 15.8961 7.14425 16.3594 6.31944 17.1842C5.49462 18.0091 5.03125 19.1277 5.03125 20.2942V40.0859C5.03125 41.2523 5.49462 42.371 6.31944 43.1958C7.14425 44.0206 8.26294 44.484 9.4294 44.484H44.6146C45.781 44.484 46.8997 44.0206 47.7245 43.1958C48.5494 42.371 49.0127 41.2523 49.0127 40.0859V20.2942C49.0127 19.1277 48.5494 18.0091 47.7245 17.1842C46.8997 16.3594 45.781 15.8961 44.6146 15.8961H38.0174L32.5197 9.29883Z" stroke="#BD937A" stroke-width="2.63889" stroke-linecap="round" stroke-linejoin="round"/>
<path d="M27.023 35.6876C30.6665 35.6876 33.6202 32.7339 33.6202 29.0904C33.6202 25.4468 30.6665 22.4932 27.023 22.4932C23.3795 22.4932 20.4258 25.4468 20.4258 29.0904C20.4258 32.7339 23.3795 35.6876 27.023 35.6876Z" stroke="#BD937A" stroke-width="2.63889" stroke-linecap="round" stroke-linejoin="round"/>
</svg>
