<svg width="54" height="54" viewBox="0 0 54 54" fill="none" xmlns="http://www.w3.org/2000/svg">
<path d="M35.8183 47.0484V42.6503C35.8183 40.3174 34.8915 38.08 33.2419 36.4304C31.5923 34.7808 29.3549 33.854 27.022 33.854H13.8275C11.4946 33.854 9.25725 34.7808 7.60763 36.4304C5.958 38.08 5.03125 40.3174 5.03125 42.6503V47.0484" stroke="#BD937A" stroke-width="2.63889" stroke-linecap="round" stroke-linejoin="round"/>
<path d="M35.8184 7.74609C37.7046 8.2351 39.3751 9.33661 40.5677 10.8777C41.7602 12.4188 42.4072 14.3123 42.4072 16.2609C42.4072 18.2095 41.7602 20.103 40.5677 21.6441C39.3751 23.1852 37.7046 24.2867 35.8184 24.7757" stroke="#BD937A" stroke-width="2.63889" stroke-linecap="round" stroke-linejoin="round"/>
<path d="M49.0132 47.0482V42.6501C49.0118 40.7011 48.3631 38.8078 47.169 37.2674C45.9749 35.7271 44.3031 34.6269 42.416 34.1396" stroke="#BD937A" stroke-width="2.63889" stroke-linecap="round" stroke-linejoin="round"/>
<path d="M20.4232 25.0574C25.2813 25.0574 29.2195 21.1192 29.2195 16.2611C29.2195 11.4031 25.2813 7.46484 20.4232 7.46484C15.5652 7.46484 11.627 11.4031 11.627 16.2611C11.627 21.1192 15.5652 25.0574 20.4232 25.0574Z" stroke="#BD937A" stroke-width="2.63889" stroke-linecap="round" stroke-linejoin="round"/>
</svg>
