<svg width="31" height="31" viewBox="0 0 31 31" fill="none" xmlns="http://www.w3.org/2000/svg">
<path d="M21.5709 3.39258H9.03667C5.57542 3.39258 2.76953 6.19847 2.76953 9.65971V22.194C2.76953 25.6552 5.57542 28.4611 9.03667 28.4611H21.5709C25.0322 28.4611 27.8381 25.6552 27.8381 22.194V9.65971C27.8381 6.19847 25.0322 3.39258 21.5709 3.39258Z" stroke="#BD937A" stroke-width="3.00823" stroke-linecap="round" stroke-linejoin="round"/>
<path d="M20.3169 15.1377C20.4716 16.1808 20.2935 17.2462 19.8077 18.1823C19.322 19.1183 18.5536 19.8774 17.6116 20.3515C16.6696 20.8256 15.6021 20.9907 14.5609 20.8231C13.5198 20.6556 12.5579 20.164 11.8122 19.4183C11.0665 18.6726 10.575 17.7108 10.4074 16.6696C10.2399 15.6284 10.4049 14.561 10.879 13.619C11.3532 12.677 12.1122 11.9085 13.0483 11.4228C13.9844 10.9371 15.0497 10.7589 16.0929 10.9136C17.157 11.0714 18.1421 11.5672 18.9027 12.3279C19.6633 13.0885 20.1592 14.0736 20.3169 15.1377Z" stroke="#BD937A" stroke-width="3.00823" stroke-linecap="round" stroke-linejoin="round"/>
<path d="M22.1973 9.0332H22.2098" stroke="#BD937A" stroke-width="3.00823" stroke-linecap="round" stroke-linejoin="round"/>
</svg>
