<svg width="31" height="31" viewBox="0 0 31 31" fill="none" xmlns="http://www.w3.org/2000/svg">
<path d="M25.3302 12.7501C25.3302 19.0084 18.3875 25.5263 16.0561 27.5393C15.8389 27.7026 15.5745 27.7909 15.3028 27.7909C15.0311 27.7909 14.7667 27.7026 14.5495 27.5393C12.2181 25.5263 5.27539 19.0084 5.27539 12.7501C5.27539 10.0906 6.33185 7.54013 8.21235 5.65962C10.0929 3.77911 12.6434 2.72266 15.3028 2.72266C17.9622 2.72266 20.5128 3.77911 22.3933 5.65962C24.2738 7.54013 25.3302 10.0906 25.3302 12.7501Z" stroke="#BD937A" stroke-width="3.00823" stroke-linecap="round" stroke-linejoin="round"/>
<path d="M15.3033 16.5098C17.38 16.5098 19.0635 14.8263 19.0635 12.7495C19.0635 10.6728 17.38 8.98926 15.3033 8.98926C13.2265 8.98926 11.543 10.6728 11.543 12.7495C11.543 14.8263 13.2265 16.5098 15.3033 16.5098Z" stroke="#BD937A" stroke-width="3.00823" stroke-linecap="round" stroke-linejoin="round"/>
</svg>
