<svg width="54" height="54" viewBox="0 0 54 54" fill="none" xmlns="http://www.w3.org/2000/svg">
<path d="M15.2735 25.8226C15.0888 26.3431 15.361 26.9148 15.8815 27.0995C16.402 27.2842 16.9737 27.012 17.1584 26.4915L16.2159 26.1571L15.2735 25.8226ZM20.6879 13.5544L19.7454 13.22L20.6879 13.5544ZM23.7039 10.9431L23.5078 9.96251L23.7039 10.9431ZM50.0306 5.67773L51.0148 5.8552C51.0735 5.52946 50.9672 5.19576 50.731 4.96395C50.4947 4.73213 50.1591 4.63224 49.8345 4.69715L50.0306 5.67773ZM45.2263 32.3201L44.2421 32.1426L45.2263 32.3201ZM42.4546 35.4601L42.1563 34.5057L42.4546 35.4601ZM29.253 38.5379C28.7259 38.7027 28.4321 39.2635 28.5968 39.7907C28.7616 40.3178 29.3224 40.6116 29.8496 40.4469L29.5513 39.4924L29.253 38.5379ZM50.2615 6.86111C50.652 6.47058 50.652 5.83742 50.2615 5.44689C49.8709 5.05637 49.2378 5.05637 48.8473 5.44689L49.5544 6.154L50.2615 6.86111ZM37.4169 16.8772C37.0264 17.2677 37.0264 17.9009 37.4169 18.2914C37.8075 18.6819 38.4406 18.6819 38.8312 18.2914L38.1241 17.5843L37.4169 16.8772ZM8.59574 35.6823L7.88863 36.3894H7.88863L8.59574 35.6823ZM8.59574 31.8722L9.30285 32.5793H9.30285L8.59574 31.8722ZM23.8362 47.1126L24.5433 47.8197L23.8362 47.1126ZM20.0261 47.1126L20.7332 46.4055L20.0261 47.1126ZM28.5988 38.5399L27.8917 39.247L28.5988 38.5399ZM28.5988 42.35L27.8917 41.6429L28.5988 42.35ZM17.1685 27.1096L17.8756 26.4025L17.1685 27.1096ZM13.3584 27.1096L12.6513 26.4025L13.3584 27.1096ZM16.2159 26.1571L17.1584 26.4915L21.6303 13.8888L20.6879 13.5544L19.7454 13.22L15.2735 25.8226L16.2159 26.1571ZM23.7039 10.9431L23.9 11.9237L50.2267 6.65832L50.0306 5.67773L49.8345 4.69715L23.5078 9.96251L23.7039 10.9431ZM50.0306 5.67773L49.0465 5.50027L44.2421 32.1426L45.2263 32.3201L46.2104 32.4975L51.0148 5.8552L50.0306 5.67773ZM42.4546 35.4601L42.1563 34.5057L29.253 38.5379L29.5513 39.4924L29.8496 40.4469L42.7529 36.4146L42.4546 35.4601ZM45.2263 32.3201L44.2421 32.1426C44.0411 33.2572 43.2374 34.1678 42.1563 34.5057L42.4546 35.4601L42.7529 36.4146C44.5449 35.8546 45.8772 34.3452 46.2104 32.4975L45.2263 32.3201ZM20.6879 13.5544L21.6303 13.8888C21.9883 12.88 22.8503 12.1336 23.9 11.9237L23.7039 10.9431L23.5078 9.96251C21.7677 10.3105 20.3388 11.5477 19.7454 13.22L20.6879 13.5544ZM49.5544 6.154L48.8473 5.44689L37.4169 16.8772L38.1241 17.5843L38.8312 18.2914L50.2615 6.86111L49.5544 6.154ZM17.1685 27.1096L16.4614 27.8167L27.8917 39.247L28.5988 38.5399L29.3059 37.8328L17.8756 26.4025L17.1685 27.1096ZM28.5988 42.35L27.8917 41.6429L23.1291 46.4055L23.8362 47.1126L24.5433 47.8197L29.3059 43.0571L28.5988 42.35ZM20.0261 47.1126L20.7332 46.4055L9.30285 34.9752L8.59574 35.6823L7.88863 36.3894L19.3189 47.8197L20.0261 47.1126ZM8.59574 31.8722L9.30285 32.5793L14.0655 27.8167L13.3584 27.1096L12.6513 26.4025L7.88863 31.1651L8.59574 31.8722ZM8.59574 35.6823L9.30285 34.9752C8.64124 34.3136 8.64124 33.2409 9.30285 32.5793L8.59574 31.8722L7.88863 31.1651C6.44598 32.6078 6.44598 34.9468 7.88863 36.3894L8.59574 35.6823ZM23.8362 47.1126L23.1291 46.4055C22.4674 47.0671 21.3948 47.0671 20.7332 46.4055L20.0261 47.1126L19.3189 47.8197C20.7616 49.2624 23.1006 49.2624 24.5433 47.8197L23.8362 47.1126ZM28.5988 38.5399L27.8917 39.247C28.5533 39.9086 28.5533 40.9813 27.8917 41.6429L28.5988 42.35L29.3059 43.0571C30.7486 41.6144 30.7486 39.2754 29.3059 37.8328L28.5988 38.5399ZM17.1685 27.1096L17.8756 26.4025C16.4329 24.9598 14.0939 24.9598 12.6513 26.4025L13.3584 27.1096L14.0655 27.8167C14.7271 27.1551 15.7998 27.1551 16.4614 27.8167L17.1685 27.1096ZM37.1715 26.1571L36.4644 25.4499C34.7507 27.1637 31.9722 27.1637 30.2584 25.4499L29.5513 26.1571L28.8442 26.8642C31.339 29.3589 35.3838 29.3589 37.8786 26.8642L37.1715 26.1571ZM29.5513 26.1571L30.2584 25.4499C28.5447 23.7362 28.5447 20.9577 30.2584 19.2439L29.5513 18.5368L28.8442 17.8297C26.3494 20.3245 26.3494 24.3694 28.8442 26.8642L29.5513 26.1571ZM29.5513 18.5368L30.2584 19.2439C31.9722 17.5302 34.7507 17.5302 36.4644 19.2439L37.1715 18.5368L37.8786 17.8297C35.3838 15.3349 31.339 15.3349 28.8442 17.8297L29.5513 18.5368ZM37.1715 18.5368L36.4644 19.2439C38.1782 20.9577 38.1782 23.7362 36.4644 25.4499L37.1715 26.1571L37.8786 26.8642C40.3734 24.3694 40.3734 20.3245 37.8786 17.8297L37.1715 18.5368Z" fill="#BD937A"/>
</svg>
