<svg width="31" height="31" viewBox="0 0 31 31" fill="none" xmlns="http://www.w3.org/2000/svg">
<path d="M17.6001 20.8175C17.8589 20.9364 18.1506 20.9636 18.427 20.8946C18.7033 20.8255 18.9479 20.6644 19.1205 20.4378L19.5655 19.8549C19.799 19.5436 20.1018 19.2909 20.4498 19.1168C20.7979 18.9428 21.1818 18.8522 21.5709 18.8522H25.3312C25.9961 18.8522 26.6337 19.1163 27.1038 19.5864C27.574 20.0565 27.8381 20.6942 27.8381 21.359V25.1193C27.8381 25.7842 27.574 26.4218 27.1038 26.8919C26.6337 27.362 25.9961 27.6262 25.3312 27.6262C19.3475 27.6262 13.6088 25.2491 9.3777 21.018C5.14656 16.7869 2.76953 11.0482 2.76953 5.06447C2.76953 4.39961 3.03365 3.76198 3.50377 3.29186C3.9739 2.82173 4.61153 2.55762 5.27639 2.55762H9.03667C9.70153 2.55762 10.3392 2.82173 10.8093 3.29186C11.2794 3.76198 11.5435 4.39961 11.5435 5.06447V8.82475C11.5435 9.21393 11.4529 9.59776 11.2789 9.94585C11.1048 10.2939 10.8521 10.5967 10.5408 10.8302L9.95418 11.2702C9.72407 11.4459 9.56188 11.6958 9.49516 11.9776C9.42844 12.2593 9.46131 12.5554 9.58818 12.8157C11.3012 16.295 14.1186 19.1089 17.6001 20.8175Z" stroke="#BD937A" stroke-width="3.00823" stroke-linecap="round" stroke-linejoin="round"/>
</svg>
