<svg width="1280" height="288" viewBox="0 0 1280 288" fill="none" xmlns="http://www.w3.org/2000/svg">
<path d="M419.145 0.835938L-479.27 287.371" stroke="url(#paint0_linear_377_1821)"/>
<path d="M429.402 0.835938L-342.783 287.371" stroke="url(#paint1_linear_377_1821)"/>
<path d="M439.658 0.835938L-232.168 287.371" stroke="url(#paint2_linear_377_1821)"/>
<path d="M449.914 0.835938L-139.689 287.371" stroke="url(#paint3_linear_377_1821)"/>
<path d="M460.17 0.835938L-60.3963 287.371" stroke="url(#paint4_linear_377_1821)"/>
<path d="M470.428 0.835938L9.03074 287.371" stroke="url(#paint5_linear_377_1821)"/>
<path d="M480.684 0.835938L70.8985 287.371" stroke="url(#paint6_linear_377_1821)"/>
<path d="M490.939 0.835938L126.869 287.371" stroke="url(#paint7_linear_377_1821)"/>
<path d="M501.197 0.835938L178.172 287.371" stroke="url(#paint8_linear_377_1821)"/>
<path d="M511.453 0.835938L225.731 287.371" stroke="url(#paint9_linear_377_1821)"/>
<path d="M521.709 0.835938L270.265 287.371" stroke="url(#paint10_linear_377_1821)"/>
<path d="M531.965 0.835938L312.343 287.371" stroke="url(#paint11_linear_377_1821)"/>
<path d="M542.223 0.835938L352.42 287.371" stroke="url(#paint12_linear_377_1821)"/>
<path d="M552.479 0.835938L390.868 287.371" stroke="url(#paint13_linear_377_1821)"/>
<path d="M562.734 0.835938L428 287.371" stroke="url(#paint14_linear_377_1821)"/>
<path d="M572.992 0.835938L464.084 287.371" stroke="url(#paint15_linear_377_1821)"/>
<path d="M583.248 0.835938L499.347 287.371" stroke="url(#paint16_linear_377_1821)"/>
<path d="M593.504 0.835938L533.998 287.371" stroke="url(#paint17_linear_377_1821)"/>
<path d="M603.76 0.835938L568.223 287.371" stroke="url(#paint18_linear_377_1821)"/>
<path d="M614.018 0.835938L602.2 287.371" stroke="url(#paint19_linear_377_1821)"/>
<path d="M624.273 0.835938L636.091 287.371" stroke="url(#paint20_linear_377_1821)"/>
<path d="M634.529 0.835938L670.066 287.371" stroke="url(#paint21_linear_377_1821)"/>
<path d="M644.787 0.835938L704.293 287.371" stroke="url(#paint22_linear_377_1821)"/>
<path d="M655.043 0.835938L738.944 287.371" stroke="url(#paint23_linear_377_1821)"/>
<path d="M665.299 0.835938L774.207 287.371" stroke="url(#paint24_linear_377_1821)"/>
<path d="M675.555 0.835938L810.289 287.371" stroke="url(#paint25_linear_377_1821)"/>
<path d="M685.812 0.835938L847.423 287.371" stroke="url(#paint26_linear_377_1821)"/>
<path d="M696.068 0.835938L885.871 287.371" stroke="url(#paint27_linear_377_1821)"/>
<path d="M706.324 0.835938L925.946 287.371" stroke="url(#paint28_linear_377_1821)"/>
<path d="M716.582 0.835938L968.026 287.371" stroke="url(#paint29_linear_377_1821)"/>
<path d="M726.838 0.835938L1012.56 287.371" stroke="url(#paint30_linear_377_1821)"/>
<path d="M737.094 0.835938L1060.12 287.371" stroke="url(#paint31_linear_377_1821)"/>
<path d="M747.35 0.835938L1111.42 287.371" stroke="url(#paint32_linear_377_1821)"/>
<path d="M757.607 0.835938L1167.39 287.371" stroke="url(#paint33_linear_377_1821)"/>
<path d="M767.863 0.835938L1229.26 287.371" stroke="url(#paint34_linear_377_1821)"/>
<path d="M778.119 0.835938L1298.69 287.371" stroke="url(#paint35_linear_377_1821)"/>
<path d="M788.377 0.835938L1377.98 287.371" stroke="url(#paint36_linear_377_1821)"/>
<path d="M798.633 0.835938L1470.46 287.371" stroke="url(#paint37_linear_377_1821)"/>
<path d="M808.889 0.835938L1581.07 287.371" stroke="url(#paint38_linear_377_1821)"/>
<path d="M819.145 0.835938L1717.56 287.371" stroke="url(#paint39_linear_377_1821)"/>
<path d="M262.205 50.8896H976.086" stroke="#B3B3B3" stroke-opacity="0.45"/>
<path d="M219.377 64.5483H1018.91" stroke="#B3B3B3" stroke-opacity="0.45"/>
<path d="M166.744 81.3354H1071.55" stroke="#B3B3B3" stroke-opacity="0.45"/>
<path d="M102.461 101.837H1135.83" stroke="#B3B3B3" stroke-opacity="0.45"/>
<path d="M24.4121 126.729H1213.88" stroke="#B3B3B3" stroke-opacity="0.45"/>
<path d="M-69.8281 156.786H1308.12" stroke="#B3B3B3" stroke-opacity="0.45"/>
<path d="M-183.025 192.888H1421.31" stroke="#B3B3B3"/>
<path d="M-318.32 236.038H1556.61" stroke="#B3B3B3"/>
<path d="M-479.271 287.371H1717.56" stroke="#B3B3B3"/>
<defs>
<linearGradient id="paint0_linear_377_1821" x1="419.408" y1="1.2606" x2="-357.12" y2="483.9" gradientUnits="userSpaceOnUse">
<stop stop-color="#4D4D4D" stop-opacity="0"/>
<stop offset="0.5" stop-color="white"/>
</linearGradient>
<linearGradient id="paint1_linear_377_1821" x1="429.695" y1="1.2411" x2="-213.401" y2="466.288" gradientUnits="userSpaceOnUse">
<stop stop-color="#4D4D4D" stop-opacity="0"/>
<stop offset="0.5" stop-color="white"/>
</linearGradient>
<linearGradient id="paint2_linear_377_1821" x1="439.978" y1="1.22046" x2="-98.2093" y2="448.541" gradientUnits="userSpaceOnUse">
<stop stop-color="#4D4D4D" stop-opacity="0"/>
<stop offset="0.5" stop-color="white"/>
</linearGradient>
<linearGradient id="paint3_linear_377_1821" x1="450.258" y1="1.19897" x2="-3.61511" y2="431.049" gradientUnits="userSpaceOnUse">
<stop stop-color="#4D4D4D" stop-opacity="0"/>
<stop offset="0.5" stop-color="white"/>
</linearGradient>
<linearGradient id="paint4_linear_377_1821" x1="460.536" y1="1.17689" x2="75.5665" y2="414.122" gradientUnits="userSpaceOnUse">
<stop stop-color="#4D4D4D" stop-opacity="0"/>
<stop offset="0.5" stop-color="white"/>
</linearGradient>
<linearGradient id="paint5_linear_377_1821" x1="470.813" y1="1.15442" x2="142.91" y2="397.993" gradientUnits="userSpaceOnUse">
<stop stop-color="#4D4D4D" stop-opacity="0"/>
<stop offset="0.5" stop-color="white"/>
</linearGradient>
<linearGradient id="paint6_linear_377_1821" x1="481.087" y1="1.13176" x2="200.975" y2="382.828" gradientUnits="userSpaceOnUse">
<stop stop-color="#4D4D4D" stop-opacity="0"/>
<stop offset="0.5" stop-color="white"/>
</linearGradient>
<linearGradient id="paint7_linear_377_1821" x1="491.358" y1="1.10902" x2="251.667" y2="368.738" gradientUnits="userSpaceOnUse">
<stop stop-color="#4D4D4D" stop-opacity="0"/>
<stop offset="0.5" stop-color="white"/>
</linearGradient>
<linearGradient id="paint8_linear_377_1821" x1="501.63" y1="1.08631" x2="296.44" y2="355.787" gradientUnits="userSpaceOnUse">
<stop stop-color="#4D4D4D" stop-opacity="0"/>
<stop offset="0.5" stop-color="white"/>
</linearGradient>
<linearGradient id="paint9_linear_377_1821" x1="511.898" y1="1.0637" x2="336.419" y2="344.008" gradientUnits="userSpaceOnUse">
<stop stop-color="#4D4D4D" stop-opacity="0"/>
<stop offset="0.5" stop-color="white"/>
</linearGradient>
<linearGradient id="paint10_linear_377_1821" x1="522.165" y1="1.04123" x2="372.502" y2="333.407" gradientUnits="userSpaceOnUse">
<stop stop-color="#4D4D4D" stop-opacity="0"/>
<stop offset="0.5" stop-color="white"/>
</linearGradient>
<linearGradient id="paint11_linear_377_1821" x1="532.43" y1="1.01895" x2="405.409" y2="323.974" gradientUnits="userSpaceOnUse">
<stop stop-color="#4D4D4D" stop-opacity="0"/>
<stop offset="0.5" stop-color="white"/>
</linearGradient>
<linearGradient id="paint12_linear_377_1821" x1="542.696" y1="0.996849" x2="435.731" y2="315.688" gradientUnits="userSpaceOnUse">
<stop stop-color="#4D4D4D" stop-opacity="0"/>
<stop offset="0.5" stop-color="white"/>
</linearGradient>
<linearGradient id="paint13_linear_377_1821" x1="552.959" y1="0.974942" x2="463.949" y2="308.522" gradientUnits="userSpaceOnUse">
<stop stop-color="#4D4D4D" stop-opacity="0"/>
<stop offset="0.5" stop-color="white"/>
</linearGradient>
<linearGradient id="paint14_linear_377_1821" x1="563.22" y1="0.953216" x2="490.474" y2="302.445" gradientUnits="userSpaceOnUse">
<stop stop-color="#4D4D4D" stop-opacity="0"/>
<stop offset="0.5" stop-color="white"/>
</linearGradient>
<linearGradient id="paint15_linear_377_1821" x1="573.483" y1="0.931653" x2="515.655" y2="297.429" gradientUnits="userSpaceOnUse">
<stop stop-color="#4D4D4D" stop-opacity="0"/>
<stop offset="0.5" stop-color="white"/>
</linearGradient>
<linearGradient id="paint16_linear_377_1821" x1="583.742" y1="0.91023" x2="539.788" y2="293.447" gradientUnits="userSpaceOnUse">
<stop stop-color="#4D4D4D" stop-opacity="0"/>
<stop offset="0.5" stop-color="white"/>
</linearGradient>
<linearGradient id="paint17_linear_377_1821" x1="594.001" y1="0.88892" x2="563.141" y2="290.476" gradientUnits="userSpaceOnUse">
<stop stop-color="#4D4D4D" stop-opacity="0"/>
<stop offset="0.5" stop-color="white"/>
</linearGradient>
<linearGradient id="paint18_linear_377_1821" x1="604.259" y1="0.867694" x2="585.954" y2="288.499" gradientUnits="userSpaceOnUse">
<stop stop-color="#4D4D4D" stop-opacity="0"/>
<stop offset="0.5" stop-color="white"/>
</linearGradient>
<linearGradient id="paint19_linear_377_1821" x1="614.517" y1="0.846517" x2="608.451" y2="287.503" gradientUnits="userSpaceOnUse">
<stop stop-color="#4D4D4D" stop-opacity="0"/>
<stop offset="0.5" stop-color="white"/>
</linearGradient>
<linearGradient id="paint20_linear_377_1821" x1="624.773" y1="0.825358" x2="630.84" y2="287.482" gradientUnits="userSpaceOnUse">
<stop stop-color="#4D4D4D" stop-opacity="0"/>
<stop offset="0.5" stop-color="white"/>
</linearGradient>
<linearGradient id="paint21_linear_377_1821" x1="635.028" y1="0.804181" x2="653.333" y2="288.436" gradientUnits="userSpaceOnUse">
<stop stop-color="#4D4D4D" stop-opacity="0"/>
<stop offset="0.5" stop-color="white"/>
</linearGradient>
<linearGradient id="paint22_linear_377_1821" x1="645.284" y1="0.782955" x2="676.144" y2="290.37" gradientUnits="userSpaceOnUse">
<stop stop-color="#4D4D4D" stop-opacity="0"/>
<stop offset="0.5" stop-color="white"/>
</linearGradient>
<linearGradient id="paint23_linear_377_1821" x1="655.537" y1="0.761645" x2="699.492" y2="293.298" gradientUnits="userSpaceOnUse">
<stop stop-color="#4D4D4D" stop-opacity="0"/>
<stop offset="0.5" stop-color="white"/>
</linearGradient>
<linearGradient id="paint24_linear_377_1821" x1="665.79" y1="0.740222" x2="723.618" y2="297.238" gradientUnits="userSpaceOnUse">
<stop stop-color="#4D4D4D" stop-opacity="0"/>
<stop offset="0.5" stop-color="white"/>
</linearGradient>
<linearGradient id="paint25_linear_377_1821" x1="676.041" y1="0.718659" x2="748.787" y2="302.21" gradientUnits="userSpaceOnUse">
<stop stop-color="#4D4D4D" stop-opacity="0"/>
<stop offset="0.5" stop-color="white"/>
</linearGradient>
<linearGradient id="paint26_linear_377_1821" x1="686.293" y1="0.696933" x2="775.303" y2="308.244" gradientUnits="userSpaceOnUse">
<stop stop-color="#4D4D4D" stop-opacity="0"/>
<stop offset="0.5" stop-color="white"/>
</linearGradient>
<linearGradient id="paint27_linear_377_1821" x1="696.542" y1="0.675026" x2="803.507" y2="315.366" gradientUnits="userSpaceOnUse">
<stop stop-color="#4D4D4D" stop-opacity="0"/>
<stop offset="0.5" stop-color="white"/>
</linearGradient>
<linearGradient id="paint28_linear_377_1821" x1="706.79" y1="0.652929" x2="833.811" y2="323.608" gradientUnits="userSpaceOnUse">
<stop stop-color="#4D4D4D" stop-opacity="0"/>
<stop offset="0.5" stop-color="white"/>
</linearGradient>
<linearGradient id="paint29_linear_377_1821" x1="717.038" y1="0.630643" x2="866.701" y2="332.997" gradientUnits="userSpaceOnUse">
<stop stop-color="#4D4D4D" stop-opacity="0"/>
<stop offset="0.5" stop-color="white"/>
</linearGradient>
<linearGradient id="paint30_linear_377_1821" x1="727.283" y1="0.60818" x2="902.762" y2="343.553" gradientUnits="userSpaceOnUse">
<stop stop-color="#4D4D4D" stop-opacity="0"/>
<stop offset="0.5" stop-color="white"/>
</linearGradient>
<linearGradient id="paint31_linear_377_1821" x1="737.527" y1="0.585568" x2="942.717" y2="355.287" gradientUnits="userSpaceOnUse">
<stop stop-color="#4D4D4D" stop-opacity="0"/>
<stop offset="0.5" stop-color="white"/>
</linearGradient>
<linearGradient id="paint32_linear_377_1821" x1="747.768" y1="0.562857" x2="987.46" y2="368.192" gradientUnits="userSpaceOnUse">
<stop stop-color="#4D4D4D" stop-opacity="0"/>
<stop offset="0.5" stop-color="white"/>
</linearGradient>
<linearGradient id="paint33_linear_377_1821" x1="758.011" y1="0.540118" x2="1038.12" y2="382.237" gradientUnits="userSpaceOnUse">
<stop stop-color="#4D4D4D" stop-opacity="0"/>
<stop offset="0.5" stop-color="white"/>
</linearGradient>
<linearGradient id="paint34_linear_377_1821" x1="768.249" y1="0.51745" x2="1096.15" y2="397.356" gradientUnits="userSpaceOnUse">
<stop stop-color="#4D4D4D" stop-opacity="0"/>
<stop offset="0.5" stop-color="white"/>
</linearGradient>
<linearGradient id="paint35_linear_377_1821" x1="778.485" y1="0.49499" x2="1163.45" y2="413.44" gradientUnits="userSpaceOnUse">
<stop stop-color="#4D4D4D" stop-opacity="0"/>
<stop offset="0.5" stop-color="white"/>
</linearGradient>
<linearGradient id="paint36_linear_377_1821" x1="788.721" y1="0.472907" x2="1242.59" y2="430.323" gradientUnits="userSpaceOnUse">
<stop stop-color="#4D4D4D" stop-opacity="0"/>
<stop offset="0.5" stop-color="white"/>
</linearGradient>
<linearGradient id="paint37_linear_377_1821" x1="798.952" y1="0.451417" x2="1337.14" y2="447.772" gradientUnits="userSpaceOnUse">
<stop stop-color="#4D4D4D" stop-opacity="0"/>
<stop offset="0.5" stop-color="white"/>
</linearGradient>
<linearGradient id="paint38_linear_377_1821" x1="809.182" y1="0.430774" x2="1452.28" y2="465.478" gradientUnits="userSpaceOnUse">
<stop stop-color="#4D4D4D" stop-opacity="0"/>
<stop offset="0.5" stop-color="white"/>
</linearGradient>
<linearGradient id="paint39_linear_377_1821" x1="819.408" y1="0.411278" x2="1595.94" y2="483.051" gradientUnits="userSpaceOnUse">
<stop stop-color="#4D4D4D" stop-opacity="0"/>
<stop offset="0.5" stop-color="white"/>
</linearGradient>
</defs>
</svg>
